<svg width="101" height="112" viewBox="0 0 101 112" fill="none" xmlns="http://www.w3.org/2000/svg">
<path d="M1.72752e-05 71.7632C1.62337e-05 47.9356 21.2168 31.8951 43.0887 31.8947L60.2456 31.8947C64.1601 31.8947 67.3333 35.068 67.3333 38.9825C67.3333 42.8969 64.1601 46.0702 60.2456 46.0702L43.0887 46.0702L42.3516 46.0788C26.9293 46.4252 14.1755 57.595 14.1755 71.7632C14.1755 86.1565 27.3378 97.4557 43.0887 97.4561L93.9123 97.4561C97.8267 97.4561 101 100.629 101 104.544C101 108.458 97.8267 111.632 93.9123 111.632L43.0887 111.632L42.0643 111.619C20.5592 111.128 1.83005e-05 95.2186 1.72752e-05 71.7632Z" fill="#FF2D55"/>
<path d="M101 39.8684C101 63.696 79.7832 79.7364 57.9113 79.7368L40.7544 79.7368C36.8399 79.7368 33.6667 76.5636 33.6667 72.6491C33.6667 68.7347 36.8399 65.5614 40.7544 65.5614L57.9113 65.5614L58.6484 65.5528C74.0707 65.2064 86.8246 54.0366 86.8246 39.8684C86.8246 25.4751 73.6622 14.1758 57.9113 14.1754L7.08772 14.1754C3.17328 14.1754 1.38708e-07 11.0022 3.09814e-07 7.08773C4.8092e-07 3.17329 3.17328 7.54576e-06 7.08772 7.71687e-06L57.9113 5.4953e-06L58.9357 0.0121183C80.4409 0.50381 101 16.413 101 39.8684Z" fill="#FF2D55"/>
</svg>
