<svg width="322" height="285" viewBox="0 0 322 285" fill="none" xmlns="http://www.w3.org/2000/svg">
<path fill-rule="evenodd" clip-rule="evenodd" d="M79.3848 284.04C79.4665 284.276 79.5336 284.453 79.582 284.565C79.5336 284.453 79.4664 284.277 79.3848 284.041V284.04ZM237.498 284.101H237.499H237.498ZM80.2744 0.145508C80.8524 0.284193 81.6674 0.483412 82.6602 0.729492C84.6456 1.22166 87.3409 1.90192 90.2734 2.66309C133.89 14.002 186.242 14.0019 229.966 2.66309L229.965 2.66211C232.756 1.95059 235.382 1.35176 237.357 0.97168C238.347 0.78133 239.164 0.648636 239.753 0.583008C240.049 0.550034 240.272 0.535649 240.425 0.537109C240.448 0.537335 240.468 0.540205 240.485 0.541016C240.531 0.612537 240.592 0.721899 240.663 0.875C240.811 1.19268 240.985 1.64259 241.17 2.19434C241.539 3.29502 241.937 4.75487 242.256 6.27246L242.257 6.28027L242.259 6.28711C243.019 9.49936 245.293 17.1014 247.342 23.1494L247.343 23.1504C261.478 64.7389 283.061 101.834 310.271 130.79L310.271 130.791L320.551 141.697L313.394 149.522C290.621 174.064 270.545 204.435 257.376 234.153L257.375 234.157C252.197 246.039 243.898 269.347 241.192 280.154C240.704 281.981 240.321 283.028 239.935 283.57C239.754 283.824 239.607 283.916 239.494 283.952C239.408 283.98 239.291 283.99 239.12 283.957L238.931 283.908C233.069 282.027 212.901 277.521 203.626 275.981L203.623 275.98L202.927 275.873C195.536 274.77 181.931 273.986 168.195 273.667C154.014 273.338 139.627 273.502 131.723 274.33H131.722C117.361 275.877 105.456 277.91 92.9043 281.061L90.3848 281.705C87.4831 282.417 84.7958 283.046 82.8223 283.482C81.834 283.701 81.0277 283.872 80.4648 283.979C80.2945 284.012 80.1481 284.034 80.0283 284.055C79.9693 283.892 79.8949 283.68 79.8096 283.422C79.6007 282.789 79.3221 281.898 78.9932 280.81C78.3356 278.634 77.4779 275.682 76.5664 272.456V272.454L75.9619 270.373C63.1273 226.75 40.9602 187.89 8.03516 151.176L0 142.138L8.57031 132.984L8.57324 132.981C37.6089 101.613 60.3754 62.6484 73.8662 20.7188C75.4828 15.8283 76.9398 11.1835 77.9922 7.63574C78.5183 5.86201 78.9449 4.35844 79.2402 3.23438C79.3877 2.67309 79.5034 2.20069 79.583 1.83496C79.6574 1.49334 79.7147 1.1845 79.7148 0.985352C79.7149 0.611452 79.7371 0.274864 79.7744 0.0273438C79.9122 0.059657 80.0799 0.0988266 80.2744 0.145508ZM78.874 282.464L79.2393 283.609C79.0904 283.158 78.9096 282.579 78.6992 281.895C78.7603 282.093 78.8177 282.283 78.874 282.464ZM241.254 282.077C241.198 282.244 241.144 282.402 241.089 282.551C241.144 282.402 241.198 282.244 241.254 282.076V282.077ZM105.472 278.848C103.908 279.158 102.351 279.484 100.793 279.824C102.351 279.484 103.908 279.158 105.472 278.848ZM200.533 276.156C201.355 276.256 202.125 276.36 202.836 276.466C202.125 276.36 201.355 276.256 200.533 276.156ZM131.785 274.927H131.786H131.785ZM145.274 274.21C143.741 274.245 142.264 274.289 140.855 274.343L138.796 274.43C140.8 274.335 142.975 274.262 145.274 274.21ZM152.508 274.114L150.029 274.133C151.661 274.116 153.336 274.108 155.041 274.108C154.189 274.108 153.344 274.11 152.508 274.114ZM257.925 234.396H257.926C257.603 235.138 257.266 235.924 256.921 236.749C257.266 235.924 257.602 235.138 257.925 234.396ZM210.394 53.21L199.516 55.7354C185.132 59.0203 164.295 60.8888 151.111 60.0146H151.11C139.063 59.1363 122.526 56.6092 115.482 54.4316C113.714 53.885 112.432 53.5598 111.538 53.5146C111.087 53.492 110.664 53.5352 110.309 53.7139C109.941 53.8989 109.708 54.1978 109.58 54.5557C109.402 54.9801 108.96 56.3974 108.389 58.2715C108.099 59.22 107.773 60.2989 107.425 61.4482C107.077 62.5976 106.707 63.8189 106.331 65.0527C98.4933 90.4632 83.7791 116.211 65.8545 135.483L65.8506 135.487L60.1445 141.749L59.7764 142.153L60.1445 142.558L65.7471 148.706L66.6025 149.653C84.2665 169.408 101.158 199.277 107.222 221.462L107.507 222.529C107.992 224.564 108.479 226.435 108.872 227.828C109.069 228.525 109.243 229.109 109.384 229.534C109.454 229.746 109.518 229.926 109.574 230.065C109.602 230.134 109.631 230.202 109.661 230.261C109.678 230.293 109.713 230.362 109.769 230.432C109.874 230.572 110.01 230.628 110.058 230.646C110.129 230.674 110.195 230.685 110.238 230.691C110.327 230.704 110.423 230.706 110.509 230.704C110.686 230.701 110.922 230.681 111.196 230.65C111.751 230.588 112.529 230.472 113.469 230.313C115.351 229.996 117.914 229.5 120.715 228.896L120.718 228.895C145.528 223.417 174.739 222.986 195.646 227.58H195.648C201.228 228.784 207.157 230.104 208.899 230.438C209.492 230.575 210 230.671 210.425 230.705C210.846 230.738 211.256 230.718 211.607 230.561C211.994 230.387 212.237 230.082 212.371 229.709C212.494 229.365 212.527 228.958 212.527 228.527C212.528 228.051 212.65 227.269 212.899 226.205C213.146 225.154 213.508 223.865 213.965 222.396C214.878 219.456 216.162 215.811 217.647 211.911C220.619 204.109 224.38 195.314 227.544 189.132C235.277 174.011 243.107 162.619 253.52 151.011L253.519 151.01L261.063 142.66L261.433 142.252L261.058 141.85L255.239 135.588C237.529 116.424 222.814 90.8957 214.762 65.1543L214.761 65.1523L211.101 53.6133L210.933 53.085L210.394 53.21ZM110.841 230.081C110.704 230.093 110.589 230.101 110.498 230.103C110.589 230.101 110.704 230.093 110.841 230.081ZM111.801 229.966C111.669 229.984 111.545 230.001 111.429 230.016C111.545 230.001 111.669 229.984 111.801 229.966ZM195.774 226.994H195.775C201.374 228.202 207.293 229.52 209.019 229.851H209.018C208.586 229.768 207.893 229.623 207.008 229.435C204.353 228.868 199.973 227.9 195.774 226.994ZM211.712 229.702C211.687 229.742 211.662 229.78 211.632 229.814C211.662 229.78 211.687 229.742 211.712 229.702ZM211.807 229.506C211.788 229.556 211.766 229.603 211.743 229.646C211.752 229.629 211.762 229.612 211.771 229.594L211.807 229.506ZM211.921 228.819C211.916 228.911 211.91 228.998 211.9 229.079L211.862 229.308C211.893 229.166 211.912 229.003 211.921 228.819ZM212.727 224.479C212.481 225.37 212.286 226.158 212.15 226.825C212.078 227.182 212.023 227.504 211.985 227.788C211.973 227.883 211.963 227.974 211.954 228.061L211.935 228.307C211.98 227.482 212.261 226.163 212.727 224.479ZM180.933 224.69C181.308 224.728 181.683 224.767 182.056 224.807L183.169 224.931C182.429 224.846 181.684 224.766 180.933 224.69ZM108.088 222.378C108.282 223.19 108.477 223.976 108.665 224.716C108.477 223.976 108.282 223.191 108.088 222.379V222.378ZM172.868 224.082H172.869H172.868ZM216.413 213.489C214.927 217.48 213.687 221.121 212.891 223.897C213.687 221.121 214.927 217.48 216.413 213.489ZM263.866 221.864H263.867H263.866ZM105.097 212.816C105.211 213.133 105.323 213.449 105.434 213.764C105.323 213.449 105.211 213.133 105.097 212.816ZM219.447 205.704C218.477 208.093 217.545 210.473 216.688 212.751C217.726 209.99 218.874 207.081 220.067 204.188L219.447 205.704ZM44.04 200.081H44.041H44.04ZM227.01 188.858C226.613 189.634 226.207 190.451 225.794 191.301C226.207 190.451 226.613 189.634 227.01 188.858ZM95.7998 191.772V191.773V191.772ZM281.397 191.574H281.398H281.397ZM231.399 180.695H231.4H231.399ZM236.681 171.958C237.196 171.159 237.716 170.368 238.241 169.585C237.716 170.368 237.196 171.159 236.681 171.958ZM298.35 168.028H298.351H298.35ZM304.416 160.591H304.417H304.416ZM9.14648 153.323C9.66279 153.906 10.1766 154.489 10.6875 155.073L12.2119 156.827C11.2008 155.657 10.1791 154.489 9.14648 153.323ZM309.113 155.145C308.767 155.537 308.422 155.931 308.077 156.325C308.422 155.931 308.767 155.537 309.113 155.145ZM313.834 149.93C312.769 151.078 311.708 152.239 310.655 153.412C311.357 152.63 312.062 151.854 312.77 151.083C313.123 150.697 313.478 150.313 313.833 149.931L313.834 149.93ZM68.8018 133.13C67.9733 134.064 67.1379 134.985 66.2949 135.892L60.5879 142.153L66.1914 148.302H66.1904L60.5879 142.153L66.2939 135.892C67.137 134.985 67.9733 134.064 68.8018 133.13ZM9.48633 131.101H9.4873C9.03749 131.594 8.5857 132.085 8.13281 132.574V132.573C8.58549 132.084 9.03671 131.593 9.48633 131.101ZM309.44 129.019C309.862 129.474 310.285 129.928 310.709 130.379L321.37 141.691H321.369L310.708 130.379C310.284 129.928 309.862 129.474 309.44 129.019ZM253.143 134.175C253.568 134.65 253.997 135.12 254.426 135.588C253.997 135.12 253.568 134.65 253.143 134.175ZM250.691 131.375C250.961 131.69 251.232 132.004 251.504 132.316L252.321 133.25C251.775 132.631 251.231 132.006 250.691 131.375ZM248.283 128.497H248.284H248.283ZM74.4756 126.376C73.9479 127.038 73.4169 127.696 72.8818 128.348C73.4169 127.696 73.9479 127.038 74.4756 126.376ZM304.796 123.855C305.242 124.366 305.691 124.873 306.141 125.379C305.691 124.873 305.242 124.366 304.796 123.855ZM79.876 119.234C79.3755 119.931 78.8708 120.624 78.3623 121.312C78.8708 120.624 79.3755 119.931 79.876 119.234ZM19.9775 118.931C19.5533 119.452 19.1277 119.971 18.7002 120.488L17.4121 122.036C18.2737 121.008 19.1289 119.973 19.9775 118.931ZM239.864 117.344C240.353 118.046 240.847 118.744 241.344 119.437C240.847 118.744 240.353 118.046 239.864 117.344ZM230.214 102.007H230.215H230.214ZM92.3086 99.4561C91.4737 100.981 90.619 102.495 89.7441 103.996C90.619 102.495 91.4737 100.981 92.3086 99.4561ZM32.208 102.81C32.9891 101.704 33.7633 100.592 34.5303 99.4736C33.7633 100.592 32.989 101.704 32.208 102.81ZM223.055 88.1152H223.056H223.055ZM98.1738 87.8447C97.9921 88.2367 97.8096 88.6285 97.625 89.0195L97.0664 90.1914C97.4411 89.411 97.8103 88.6287 98.1738 87.8447ZM45.4951 82.2734H45.4961H45.4951ZM100.286 83.1221H100.287H100.286ZM103.64 74.792H103.641H103.64ZM269.601 72.8271C270.134 73.8137 270.674 74.7955 271.217 75.7734C270.993 75.3696 270.768 74.9659 270.545 74.5605L269.601 72.8271ZM106.531 66.4238L106.147 67.6201C106.28 67.2115 106.412 66.803 106.541 66.3945C106.538 66.4043 106.534 66.414 106.531 66.4238ZM265.918 65.8057H265.919H265.918ZM106.904 65.2295L106.905 65.2285L106.904 65.2295ZM259.858 53.1943C260.412 54.4144 260.972 55.6294 261.539 56.8389C260.972 55.6294 260.412 54.4144 259.858 53.1943ZM153.643 60.7461H153.644C154.086 60.7629 154.534 60.7764 154.989 60.7881C155.899 60.8114 156.833 60.824 157.789 60.8271C156.355 60.8224 154.969 60.7967 153.643 60.7461ZM171.672 60.2969C170.594 60.3766 169.523 60.4473 168.46 60.5098C168.991 60.4785 169.525 60.4448 170.061 60.4092L171.672 60.2969ZM136.328 59.0322V59.0312V59.0322ZM123.242 56.8936C122.534 56.7543 121.847 56.6142 121.186 56.4736C121.847 56.6142 122.534 56.7543 123.242 56.8936ZM111.509 54.1133C111.995 54.1378 112.627 54.2575 113.439 54.4678C112.627 54.2575 111.995 54.1379 111.509 54.1133ZM110.549 54.2646C110.505 54.2888 110.464 54.316 110.427 54.3457C110.464 54.316 110.505 54.2888 110.549 54.2646ZM63.1621 47.5254C62.8907 48.1556 62.6174 48.7849 62.3418 49.4131L61.5088 51.2939C62.0682 50.0417 62.6194 48.7855 63.1621 47.5254ZM244.238 11.2734C245.266 14.8032 246.632 19.1812 247.911 22.957H247.91C246.887 19.9367 245.809 16.5309 244.893 13.4824C244.663 12.7202 244.444 11.9804 244.238 11.2744V11.2734ZM68.5498 34.1553C68.3084 34.798 68.0651 35.44 67.8193 36.0811C68.0652 35.4397 68.3083 34.7973 68.5498 34.1543V34.1553ZM242.843 6.14941V6.14844C242.89 6.34748 242.943 6.56398 243.002 6.7959V6.79688C242.943 6.56481 242.89 6.34857 242.843 6.14941ZM241.474 1.25977C241.649 1.7187 241.837 2.28053 242.025 2.91016L242.312 3.92188C242.033 2.8808 241.738 1.95283 241.474 1.25977ZM240.797 0C240.851 0.0275055 240.913 0.0967897 240.982 0.202148C240.931 0.123241 240.882 0.0651905 240.839 0.0292969C240.824 0.0172933 240.81 0.00787494 240.797 0.000976562V0Z" fill="#F1423B"/>
</svg>
